<?xml version="1.0" standalone="no"?>
<!DOCTYPE svg PUBLIC "-//W3C//DTD SVG 20010904//EN"
 "http://www.w3.org/TR/2001/REC-SVG-20010904/DTD/svg10.dtd">
<svg version="1.0" xmlns="http://www.w3.org/2000/svg"
 width="256.000000pt" height="256.000000pt" viewBox="0 0 256.000000 256.000000"
 preserveAspectRatio="xMidYMid meet">
<metadata>
Created by potrace 1.11, written by Peter Selinger 2001-2013
</metadata>
<g transform="translate(0.000000,256.000000) scale(0.100000,-0.100000)"
fill="#000000" stroke="none">
<path d="M0 1446 l0 -1114 47 -7 c37 -5 48 -4 55 9 5 9 17 16 26 16 10 0 22 4
27 9 6 5 46 11 90 13 44 2 86 7 93 11 6 5 17 5 23 1 8 -5 8 -1 0 14 -6 11 -16
22 -23 25 -14 5 37 13 145 22 46 5 67 11 67 20 0 7 -6 15 -12 18 -10 3 -10 7
-1 17 10 11 18 10 43 -2 27 -13 29 -17 15 -28 -8 -7 -15 -21 -15 -31 0 -10 -5
-21 -10 -24 -7 -4 -7 -13 0 -24 5 -10 7 -33 5 -52 -3 -19 -10 -80 -16 -135
-10 -92 -13 -101 -30 -97 -23 6 -25 19 -3 27 29 11 2 28 -36 23 -26 -3 -43 0
-53 10 -14 14 -19 13 -50 -6 -30 -18 -36 -19 -41 -6 -4 12 -18 15 -63 12 -32
-3 -65 -7 -74 -11 -9 -4 -21 -1 -29 9 -17 21 -53 19 -75 -5 -21 -24 -48 -26
-65 -5 -7 8 -19 15 -26 15 -11 0 -14 -19 -14 -85 l0 -85 1280 0 1280 0 0 101
c0 55 -5 110 -11 121 -8 14 -8 23 0 31 14 14 14 57 0 57 -55 0 -147 -48 -134
-70 4 -6 -1 -17 -11 -25 -15 -11 -20 -11 -29 1 -9 13 -27 18 -82 23 -7 0 -13
12 -13 25 0 14 -4 28 -10 31 -5 3 -10 15 -10 26 0 31 -15 15 -30 -33 -18 -57
-21 -59 -57 -49 -25 7 -33 6 -37 -6 -3 -8 -4 -19 -1 -23 8 -13 -16 -23 -27
-12 -8 8 -18 6 -34 -5 -23 -15 -24 -14 -24 11 0 28 -36 52 -54 36 -5 -5 -15
-6 -22 -3 -10 4 -14 -3 -14 -25 0 -24 -6 -32 -30 -42 -17 -7 -33 -10 -37 -6
-3 3 -1 6 7 6 10 0 10 3 0 15 -7 8 -9 15 -4 16 5 1 -7 5 -26 9 -21 5 -40 5
-47 -1 -7 -7 -14 -6 -18 1 -3 6 -19 8 -33 6 -15 -2 -30 -5 -34 -5 -5 -1 -8
-10 -8 -21 0 -14 -5 -18 -16 -13 -12 4 -13 8 -3 14 8 5 1 7 -18 7 -17 -1 -47
9 -67 20 -20 12 -42 19 -50 16 -7 -3 -16 2 -19 10 -6 16 -37 23 -37 9 0 -5 -9
-19 -19 -32 -17 -22 -20 -23 -50 -10 -17 8 -31 17 -31 21 0 5 -40 8 -90 8 -87
0 -90 -1 -90 -23 0 -21 -4 -23 -55 -23 -54 0 -74 13 -35 23 24 6 26 19 5 27
-10 4 -20 -3 -27 -19 -11 -24 -15 -25 -109 -25 -92 0 -97 -1 -92 -20 5 -18 3
-19 -27 -9 -17 6 -47 9 -66 6 -20 -3 -49 0 -68 8 -30 13 -34 19 -40 67 -16
128 -29 167 -55 177 -25 9 -25 9 -3 10 26 1 29 26 5 40 -13 7 46 10 194 8 195
-2 213 -3 213 -19 0 -10 7 -18 15 -18 8 0 14 5 13 12 -2 6 5 14 15 16 10 2 17
-2 17 -12 0 -13 14 -16 86 -16 64 0 85 3 82 13 -3 6 -10 13 -16 13 -25 3 -27
5 -12 14 8 5 23 7 33 4 9 -3 17 -1 17 5 0 13 41 -7 53 -26 4 -7 27 -13 50 -13
23 0 119 0 212 0 216 -1 256 2 300 29 36 21 97 32 65 11 -12 -8 -9 -10 12 -10
19 0 35 -10 50 -30 l22 -31 106 7 c166 11 340 11 340 -1 0 -5 5 -3 10 5 6 9
10 405 10 1068 l0 1052 -1280 0 -1280 0 0 -1114z m1386 350 c84 -39 144 -128
144 -212 0 -53 -20 -101 -60 -147 l-40 -45 29 -21 c76 -54 103 -189 57 -287
-89 -191 -400 -194 -498 -5 -52 99 -32 209 49 283 l41 36 -34 33 c-45 44 -64
87 -64 148 0 107 71 198 180 232 54 16 143 10 196 -15z m753 -1247 c27 -22 22
-36 -7 -20 -12 6 -30 11 -41 11 -21 0 -27 11 -14 23 12 12 38 7 62 -14z m-969
-39 c11 -7 3 -9 -28 -8 -27 1 -38 4 -30 10 17 10 40 10 58 -2z m-1008 -77
c-23 -2 -61 -2 -85 0 -23 2 -4 4 43 4 47 0 66 -2 42 -4z m466 -98 c-3 -3 -9 2
-12 12 -6 14 -5 15 5 6 7 -7 10 -15 7 -18z m39 -28 c3 -39 2 -41 -12 -23 -18
24 -19 38 -3 54 7 7 12 12 13 12 0 0 1 -19 2 -43z m-54 18 c4 -8 2 -17 -3 -20
-6 -4 -10 3 -10 14 0 25 6 27 13 6z m17 -35 c0 -5 -5 -10 -11 -10 -5 0 -7 5
-4 10 3 6 8 10 11 10 2 0 4 -4 4 -10z m62 -32 c-8 -8 -9 -4 -5 13 4 13 8 18
11 10 2 -7 -1 -18 -6 -23z m-29 3 c13 -2 3 -44 -12 -49 -10 -3 -11 2 -6 18 6
18 4 22 -8 17 -8 -3 -20 0 -26 6 -9 9 -11 8 -6 -5 4 -10 11 -18 15 -18 22 0
18 -36 -7 -62 -25 -27 -21 -42 5 -16 10 10 15 10 22 -2 8 -12 10 -11 8 5 -4
24 14 32 26 12 13 -21 -11 -42 -50 -45 -21 -1 -34 3 -38 13 -8 21 4 76 16 69
5 -3 4 3 -3 14 -19 30 -5 54 28 48 16 -2 32 -5 36 -5z m56 -88 c1 -17 -3 -34
-8 -37 -12 -8 -22 36 -11 49 6 7 5 16 -2 23 -6 6 -7 18 -3 29 7 16 9 15 15 -7
5 -14 8 -39 9 -57z m1801 47 c8 -5 11 -10 5 -10 -5 0 -17 5 -25 10 -8 5 -10
10 -5 10 6 0 17 -5 25 -10z m-55 -10 c3 -5 1 -10 -4 -10 -6 0 -11 5 -11 10 0
6 2 10 4 10 3 0 8 -4 11 -10z m-1785 -16 c0 -8 -4 -12 -10 -9 -5 3 -10 10 -10
16 0 5 5 9 10 9 6 0 10 -7 10 -16z m-386 -88 c-10 -8 -21 -12 -24 -10 -5 6 21
24 34 24 6 0 1 -6 -10 -14z m-84 -6 c0 -5 -5 -10 -11 -10 -5 0 -7 5 -4 10 3 6
8 10 11 10 2 0 4 -4 4 -10z m164 -1 c-2 -4 2 -10 8 -12 8 -3 6 -6 -4 -6 -10
-1 -18 3 -18 9 0 5 -7 6 -17 3 -10 -4 -14 -2 -9 5 3 6 15 10 26 9 10 -1 17 -4
14 -8z m257 -3 c0 -6 -12 -11 -26 -13 -18 -3 -25 1 -25 12 0 12 7 15 25 13 14
-2 26 -7 26 -12z"/>
<path d="M1223 1693 c-13 -2 -36 -18 -53 -34 -41 -41 -43 -112 -4 -158 77 -92
234 -43 234 73 0 87 -77 138 -177 119z"/>
<path d="M1193 1311 c-67 -31 -93 -112 -58 -181 41 -79 189 -90 249 -19 31 36
35 102 10 150 -17 34 -82 69 -129 69 -16 0 -49 -9 -72 -19z"/>
<path d="M2515 430 c3 -5 8 -10 11 -10 2 0 4 5 4 10 0 6 -5 10 -11 10 -5 0 -7
-4 -4 -10z"/>
<path d="M425 421 c-3 -6 -15 -11 -26 -11 -11 0 -17 -4 -14 -10 3 -5 16 -10
28 -10 16 0 18 -3 9 -9 -11 -7 -10 -10 3 -15 9 -3 27 -6 40 -6 13 0 27 -4 30
-10 8 -13 65 -13 65 -1 0 6 -5 13 -10 16 -6 4 -8 15 -5 26 4 12 2 19 -7 20
-14 1 -30 3 -76 14 -18 3 -33 2 -37 -4z"/>
<path d="M982 390 c37 -11 267 -10 274 1 3 5 -59 8 -148 8 -88 -1 -142 -5
-126 -9z"/>
<path d="M1520 388 c0 -11 12 -10 30 2 12 7 10 9 -8 7 -12 0 -22 -5 -22 -9z"/>
<path d="M1086 244 c-9 -24 0 -29 18 -11 8 8 12 17 9 21 -11 10 -21 7 -27 -10z"/>
</g>
</svg>
